<svg width="173" height="172" viewBox="0 0 173 172" fill="none" xmlns="http://www.w3.org/2000/svg">
<path d="M71.1637 148.177C72.1094 148.407 72.9249 148.778 73.6103 149.288C74.2828 149.794 74.7651 150.406 75.0572 151.122C75.3493 151.838 75.4009 152.613 75.2118 153.445L72.2971 152.735C72.3939 152.168 72.3069 151.68 72.036 151.271C71.7522 150.859 71.2994 150.577 70.6776 150.426C70.0428 150.271 69.5078 150.299 69.0725 150.508C68.634 150.731 68.3548 151.088 68.2349 151.58C68.137 151.982 68.1796 152.342 68.3626 152.661C68.5457 152.98 68.8076 153.257 69.1486 153.491C69.4735 153.735 69.9377 154.026 70.5412 154.365C71.359 154.839 72.0164 155.267 72.5135 155.649C72.9945 156.04 73.3742 156.538 73.6527 157.141C73.9151 157.754 73.9421 158.488 73.7338 159.343C73.5382 160.146 73.167 160.796 72.6202 161.294C72.0734 161.792 71.3995 162.109 70.5983 162.243C69.7939 162.39 68.9254 162.35 67.9927 162.123C66.5936 161.782 65.5437 161.162 64.843 160.264C64.1262 159.376 63.8708 158.312 64.0768 157.072L67.0693 157.801C66.9816 158.274 67.0893 158.705 67.3924 159.094C67.6793 159.494 68.1273 159.768 68.7361 159.916C69.2673 160.045 69.7279 160.013 70.118 159.82C70.4952 159.624 70.7469 159.267 70.8732 158.749C70.9615 158.386 70.9191 158.053 70.7459 157.75C70.5566 157.457 70.3059 157.19 69.994 156.949C69.666 156.718 69.2018 156.427 68.6015 156.075C67.7837 155.601 67.1278 155.167 66.6339 154.772C66.14 154.377 65.7553 153.872 65.48 153.256C65.2046 152.64 65.1695 151.911 65.3747 151.069C65.5514 150.343 65.9034 149.716 66.4305 149.185C66.9577 148.655 67.6298 148.29 68.4467 148.091C69.2606 147.905 70.1662 147.934 71.1637 148.177Z" fill="#919191"/>
<path d="M41.7822 150.503L48.8579 138.469L51.2716 139.889L48.2609 145.009L53.4158 148.04L56.4265 142.92L58.8402 144.339L51.7645 156.373L49.3508 154.954L52.2602 150.006L47.1052 146.974L44.1959 151.923L41.7822 150.503Z" fill="#919191"/>
<path d="M34.7721 128.779L38.4852 132.918L41.0795 131.826L43.0429 134.014L29.2849 139.614L27.1078 137.188L34.1608 124.115L36.1376 126.318L34.7721 128.779ZM33.6124 130.841L30.6146 136.245L36.3104 133.848L33.6124 130.841Z" fill="#919191"/>
<path d="M16.7769 121.919L29.0771 115.317L30.4013 117.784L18.1011 124.387L16.7769 121.919Z" fill="#919191"/>
<path d="M23.6241 100.473L18.9298 106.989L24.9381 105.38L25.6623 108.085L12.1774 111.696L11.4532 108.991L17.5001 107.372L10.1392 104.084L9.26492 100.819L17.4393 104.593L22.7085 97.0535L23.6241 100.473Z" fill="#919191"/>
<path d="M11.5051 62.0187L25.1415 65.0069L24.5422 67.742L15.6726 65.7984L23.7416 71.3953L23.2878 73.4662L13.6134 75.1954L22.483 77.139L21.8836 79.8741L8.24719 76.8859L8.92788 73.7796L20.0177 71.6644L10.8287 65.1055L11.5051 62.0187Z" fill="#919191"/>
<path d="M30.352 49.4042L27.4611 54.1536L29.2549 56.3225L27.7263 58.8338L18.3948 47.2769L20.0898 44.4922L34.6416 47.473L33.1026 50.0014L30.352 49.4042ZM28.0435 48.8887L22.0047 47.5777L25.9429 52.3397L28.0435 48.8887Z" fill="#919191"/>
<path d="M38.959 23.7639L48.1223 34.2956L46.0099 36.1335L42.1109 31.6522L37.5995 35.5775L41.4985 40.0587L39.3861 41.8966L30.2228 31.365L32.3352 29.5271L36.1029 33.8574L40.6143 29.9322L36.8466 25.6018L38.959 23.7639Z" fill="#919191"/>
<path d="M61.7841 24.0168L56.6807 26.2231L56.8918 29.0298L54.1932 30.1965L53.2533 15.3723L56.2456 14.0786L66.4011 24.9186L63.6842 26.0933L61.7841 24.0168ZM60.1977 22.2623L56.026 17.7034L56.4894 23.8655L60.1977 22.2623Z" fill="#919191"/>
<path d="M80.5621 15.1675C81.3604 15.2226 82.0481 15.5388 82.6252 16.1161C83.2022 16.6935 83.5384 17.3927 83.6336 18.2139C83.7197 18.9556 83.6103 19.6327 83.3055 20.2452C83.0124 20.843 82.54 21.3407 81.8881 21.7385C81.2363 22.1363 80.4402 22.3897 79.4998 22.4988L73.5199 23.1925L71.9113 9.32547L77.6329 8.66173C78.5733 8.55264 79.3989 8.61123 80.1097 8.8375C80.8337 9.06223 81.3994 9.42613 81.8068 9.92921C82.2274 10.4307 82.4776 11.0259 82.5575 11.7146C82.6512 12.5225 82.5111 13.2233 82.137 13.8171C81.7762 14.4092 81.2512 14.8594 80.5621 15.1675ZM75.3564 14.7244L77.8993 14.4295C78.5616 14.3526 79.0546 14.1478 79.3784 13.8149C79.7006 13.4688 79.8295 13.0176 79.765 12.4614C79.7004 11.9051 79.4717 11.4954 79.0788 11.2322C78.6858 10.9691 78.1582 10.8759 77.496 10.9528L74.9531 11.2478L75.3564 14.7244ZM78.8398 20.2801C79.5152 20.2017 80.02 19.9821 80.3539 19.6212C80.7012 19.2588 80.841 18.7862 80.7734 18.2034C80.7042 17.6074 80.4518 17.1669 80.016 16.8819C79.5787 16.5836 79.0224 16.4737 78.3469 16.552L75.6053 16.8701L76.0386 20.605L78.8398 20.2801Z" fill="#919191"/>
<path d="M97.5585 23.3769C96.2741 23.1368 95.1508 22.6149 94.1888 21.8111C93.2268 21.0074 92.5304 20.0159 92.0998 18.8367C91.6715 17.6444 91.5836 16.3732 91.8359 15.0233C92.0858 13.6864 92.6245 12.546 93.452 11.602C94.282 10.6448 95.2907 9.96526 96.4781 9.56325C97.6655 9.16124 98.9015 9.08027 100.186 9.32035C101.483 9.56288 102.607 10.0848 103.556 10.8861C104.518 11.6899 105.206 12.6867 105.621 13.8766C106.052 15.0558 106.142 16.3138 105.892 17.6507C105.64 19.0006 105.099 20.1542 104.269 21.1113C103.455 22.0578 102.454 22.732 101.266 23.134C100.079 23.536 98.8429 23.617 97.5585 23.3769ZM98.0178 20.9195C98.8435 21.0738 99.6052 21.0263 100.303 20.7769C101.003 20.5144 101.595 20.0689 102.079 19.4404C102.562 18.8119 102.89 18.0389 103.062 17.1215C103.233 16.2041 103.205 15.3715 102.979 14.6238C102.755 13.863 102.363 13.2404 101.802 12.7558C101.242 12.2712 100.549 11.9518 99.7229 11.7975C98.8972 11.6431 98.1289 11.6894 97.4181 11.9364C96.7204 12.1857 96.1297 12.6247 95.646 13.2532C95.1647 13.8686 94.8384 14.635 94.6669 15.5524C94.4954 16.4699 94.5217 17.309 94.7457 18.0698C94.9697 18.8305 95.3608 19.4598 95.9189 19.9574C96.4925 20.4445 97.1921 20.7651 98.0178 20.9195Z" fill="#919191"/>
<path d="M116.895 30.31C115.753 29.6742 114.854 28.8224 114.197 27.7546C113.541 26.6868 113.195 25.5254 113.162 24.2705C113.135 23.0039 113.455 21.7707 114.123 20.5709C114.785 19.3827 115.658 18.4726 116.743 17.8404C117.834 17.1966 119.006 16.8728 120.26 16.869C121.514 16.8651 122.711 17.1811 123.853 17.8168C125.006 18.4591 125.905 19.3109 126.55 20.3722C127.207 21.44 127.543 22.604 127.559 23.8641C127.592 25.119 127.278 26.3406 126.616 27.5287C125.948 28.7285 125.069 29.6503 123.978 30.2941C122.905 30.9327 121.741 31.254 120.488 31.2578C119.234 31.2617 118.036 30.9457 116.895 30.31ZM118.111 28.1258C118.845 28.5346 119.582 28.7315 120.323 28.7168C121.071 28.6904 121.773 28.4561 122.432 28.0138C123.09 27.5716 123.646 26.9428 124.1 26.1274C124.555 25.312 124.793 24.5139 124.816 23.733C124.845 22.9404 124.671 22.2254 124.294 21.5878C123.916 20.9503 123.36 20.4271 122.627 20.0184C121.893 19.6097 121.15 19.4095 120.397 19.4178C119.656 19.4325 118.957 19.661 118.298 20.1032C117.647 20.5338 117.094 21.1568 116.639 21.9722C116.185 22.7876 115.944 23.5915 115.914 24.3841C115.885 25.1766 116.056 25.8975 116.427 26.5467C116.816 27.1908 117.377 27.7171 118.111 28.1258Z" fill="#919191"/>
<path d="M139.328 39.0373C139.765 39.7076 139.927 40.4469 139.814 41.2553C139.701 42.0637 139.346 42.7534 138.748 43.3243C138.208 43.84 137.602 44.1608 136.929 44.2868C136.276 44.4132 135.594 44.3362 134.884 44.0558C134.173 43.7754 133.491 43.2929 132.838 42.6082L128.68 38.2546L138.776 28.6133L142.754 32.7789C143.408 33.4635 143.858 34.1576 144.106 34.8612C144.363 35.5744 144.414 36.2451 144.258 36.8734C144.111 37.5113 143.787 38.0697 143.286 38.5485C142.698 39.1102 142.054 39.4208 141.355 39.4801C140.665 39.5491 139.989 39.4015 139.328 39.0373ZM136.544 34.6163L138.312 36.4677C138.772 36.9498 139.233 37.2198 139.694 37.2775C140.164 37.3261 140.602 37.157 141.007 36.7702C141.412 36.3835 141.601 35.954 141.574 35.4819C141.547 35.0097 141.304 34.5326 140.843 34.0504L139.075 32.1991L136.544 34.6163ZM134.21 40.7443C134.68 41.2361 135.159 41.5065 135.649 41.5554C136.147 41.6141 136.608 41.4408 137.033 41.0356C137.467 40.6213 137.666 40.1543 137.631 39.6348C137.605 39.1061 137.358 38.5959 136.888 38.1041L134.982 36.1081L132.263 38.7049L134.21 40.7443Z" fill="#919191"/>
<path d="M146.21 65.0864C145.893 64.166 145.765 63.2796 145.824 62.4273C145.888 61.5876 146.142 60.8515 146.587 60.219C147.033 59.5866 147.656 59.1253 148.459 58.8352L149.435 61.6721C148.905 61.8964 148.542 62.2329 148.344 62.6818C148.15 63.1432 148.157 63.6765 148.365 64.2817C148.578 64.8996 148.89 65.3351 149.301 65.5885C149.725 65.8374 150.177 65.8795 150.656 65.7148C151.046 65.5804 151.327 65.35 151.497 65.0237C151.666 64.6975 151.758 64.3276 151.771 63.9143C151.801 63.5092 151.795 62.9611 151.755 62.27C151.713 61.3259 151.718 60.5416 151.771 59.917C151.841 59.3007 152.055 58.7126 152.412 58.1526C152.786 57.6009 153.389 57.182 154.222 56.8958C155.003 56.627 155.751 56.5883 156.466 56.7797C157.18 56.9711 157.81 57.3679 158.356 57.9699C158.914 58.5676 159.349 59.3203 159.661 60.2282C160.129 61.5899 160.174 62.808 159.797 63.8826C159.436 64.9655 158.678 65.7548 157.523 66.2507L156.522 63.3381C156.967 63.1567 157.272 62.8334 157.436 62.368C157.617 61.9109 157.606 61.3861 157.402 60.7935C157.224 60.2765 156.949 59.906 156.576 59.6818C156.207 59.4702 155.77 59.4512 155.266 59.6246C154.913 59.746 154.655 59.9614 154.494 60.2707C154.349 60.5883 154.26 60.9434 154.226 61.3358C154.208 61.7366 154.214 62.2847 154.241 62.9801C154.284 63.9242 154.272 64.7107 154.207 65.3396C154.141 65.9685 153.923 66.5651 153.553 67.1294C153.183 67.6937 152.588 68.1168 151.769 68.3986C151.063 68.6414 150.344 68.6841 149.613 68.5265C148.882 68.369 148.213 68.0001 147.604 67.4197C147.008 66.8351 146.544 66.0573 146.21 65.0864Z" fill="#919191"/>
<path d="M163.659 79.652L155.028 80.0523C154.083 80.0961 153.368 80.3762 152.885 80.8925C152.415 81.4081 152.201 82.1121 152.242 83.0045C152.284 83.9102 152.563 84.598 153.078 85.068C153.607 85.5373 154.345 85.75 155.29 85.7062L163.921 85.306L164.052 88.1229L155.441 88.5222C154.256 88.5772 153.238 88.3641 152.388 87.883C151.552 87.4145 150.908 86.757 150.455 85.9104C150.002 85.0771 149.752 84.1344 149.703 83.0822C149.655 82.0433 149.817 81.0881 150.191 80.2165C150.565 79.3583 151.146 78.6639 151.936 78.1335C152.739 77.6024 153.733 77.3093 154.918 77.2543L163.529 76.855L163.659 79.652Z" fill="#919191"/>
<path d="M154.4 105.638C154.072 106.368 153.537 106.903 152.795 107.244C152.054 107.585 151.281 107.658 150.478 107.463C149.752 107.286 149.155 106.949 148.686 106.451C148.227 105.969 147.924 105.353 147.777 104.604C147.63 103.854 147.668 103.02 147.892 102.1L149.314 96.2505L162.879 99.5489L161.518 105.146C161.294 106.066 160.953 106.82 160.494 107.408C160.033 108.009 159.495 108.414 158.882 108.621C158.266 108.842 157.621 108.871 156.947 108.707C156.157 108.515 155.548 108.14 155.121 107.583C154.691 107.04 154.45 106.391 154.4 105.638ZM156.62 100.909L156.016 103.396C155.858 104.044 155.879 104.577 156.079 104.997C156.292 105.419 156.671 105.696 157.215 105.828C157.759 105.961 158.223 105.888 158.606 105.611C158.989 105.334 159.259 104.871 159.416 104.223L160.021 101.736L156.62 100.909ZM150.202 102.25C150.041 102.911 150.072 103.46 150.295 103.899C150.514 104.35 150.909 104.645 151.479 104.784C152.062 104.925 152.563 104.841 152.981 104.531C153.413 104.225 153.709 103.741 153.869 103.08L154.522 100.398L150.868 99.5099L150.202 102.25Z" fill="#919191"/>
<path d="M150.378 130.281L138.341 123.211L139.76 120.796L144.881 123.805L147.91 118.649L142.788 115.64L144.207 113.226L156.244 120.296L154.825 122.711L149.876 119.804L146.847 124.96L151.797 127.867L150.378 130.281Z" fill="#919191"/>
<path d="M128.658 137.301L132.795 133.586L131.702 130.992L133.889 129.028L139.495 142.783L137.07 144.961L123.994 137.914L126.196 135.936L128.658 137.301ZM130.72 138.46L136.125 141.455L133.726 135.76L130.72 138.46Z" fill="#919191"/>
<path d="M106.96 146.796L109.512 145.645L119.231 151.771L115.291 143.038L117.844 141.887L123.592 154.63L121.04 155.782L111.313 149.638L115.26 158.388L112.708 159.54L106.96 146.796Z" fill="#919191"/>
<path d="M99.149 162.906L96.5801 149.184L99.3323 148.669L101.901 162.39L99.149 162.906Z" fill="#919191"/>
</svg>
