<svg width="85" height="16" viewBox="0 0 85 16" fill="none" xmlns="http://www.w3.org/2000/svg">
<path d="M19.36 15.32C18.1867 15.32 17.0533 15.1867 15.96 14.92C14.8667 14.6533 13.9667 14.3067 13.26 13.88L14.78 10.44C15.4467 10.8267 16.1867 11.14 17 11.38C17.8267 11.6067 18.6267 11.72 19.4 11.72C19.8533 11.72 20.2067 11.6933 20.46 11.64C20.7267 11.5733 20.92 11.4867 21.04 11.38C21.16 11.26 21.22 11.12 21.22 10.96C21.22 10.7067 21.08 10.5067 20.8 10.36C20.52 10.2133 20.1467 10.0933 19.68 9.99999C19.2267 9.89333 18.7267 9.78666 18.18 9.67999C17.6333 9.55999 17.08 9.40666 16.52 9.21999C15.9733 9.03333 15.4667 8.78666 15 8.47999C14.5467 8.17333 14.18 7.77333 13.9 7.27999C13.62 6.77333 13.48 6.14666 13.48 5.39999C13.48 4.53333 13.72 3.74666 14.2 3.03999C14.6933 2.31999 15.42 1.74666 16.38 1.31999C17.3533 0.893326 18.56 0.679993 20 0.679993C20.9467 0.679993 21.88 0.779993 22.8 0.979992C23.72 1.17999 24.5467 1.48666 25.28 1.89999L23.86 5.31999C23.1667 4.97333 22.4933 4.71333 21.84 4.53999C21.2 4.36666 20.5733 4.27999 19.96 4.27999C19.5067 4.27999 19.1467 4.31999 18.88 4.39999C18.6133 4.47999 18.42 4.58666 18.3 4.71999C18.1933 4.85333 18.14 4.99999 18.14 5.15999C18.14 5.39999 18.28 5.59333 18.56 5.73999C18.84 5.87333 19.2067 5.98666 19.66 6.07999C20.1267 6.17333 20.6333 6.27333 21.18 6.37999C21.74 6.48666 22.2933 6.63333 22.84 6.81999C23.3867 7.00666 23.8867 7.25333 24.34 7.55999C24.8067 7.86666 25.18 8.26666 25.46 8.75999C25.74 9.25333 25.88 9.86666 25.88 10.6C25.88 11.4533 25.6333 12.24 25.14 12.96C24.66 13.6667 23.94 14.24 22.98 14.68C22.02 15.1067 20.8133 15.32 19.36 15.32Z" fill="white"/>
<path d="M37.08 1H41.8V15H37.08V1ZM32.72 15H28V1H32.72V15ZM37.4 9.84H32.4V5.96H37.4V9.84Z" fill="white"/>
<path d="M63 15V1H67.72V15H63Z" fill="white"/>
<path d="M74.22 12L73.96 6.82L79.24 1H84.38L78.46 7.52L75.84 10.2L74.22 12ZM70 15V1H74.64V15H70ZM79.2 15L75.08 9.56L78.14 6.32L84.66 15H79.2Z" fill="white"/>
<path d="M44 15L50.12 1H54.76L60.88 15H56L51.48 3.24H53.32L48.8 15H44Z" fill="white"/>
<rect x="5.64929" y="1" width="3.19237" height="8.30016" rx="1.59618" transform="rotate(42.8923 5.64929 1)" fill="#F50F46"/>
<rect x="6.92621" y="6.74628" width="3.19237" height="8.30016" rx="1.59618" transform="rotate(42.8923 6.92621 6.74628)" fill="#F50F46"/>
</svg>
