<svg width="179" height="179" viewBox="0 0 179 179" fill="none" xmlns="http://www.w3.org/2000/svg">
<circle cx="89.4401" cy="89.4401" r="89.4401" fill="#292929"/>
<g clip-path="url(#clip0_302_19)">
<path d="M90.7825 120.011C90.0929 120.701 88.8671 120.816 88.0626 120.011C87.7038 119.65 87.5024 119.161 87.5024 118.651C87.5024 118.142 87.7038 117.653 88.0626 117.291L101.049 104.305L95.6475 98.9036L82.6612 111.89C81.9334 112.656 80.7075 112.618 79.9414 111.89C79.5825 111.528 79.3812 111.039 79.3812 110.53C79.3812 110.021 79.5825 109.532 79.9414 109.17L92.9277 96.1838L87.5263 90.7824L74.54 103.769C73.8505 104.458 72.6246 104.573 71.8202 103.769C71.4694 103.403 71.2736 102.916 71.2736 102.409C71.2736 101.902 71.4694 101.415 71.8202 101.049L84.8065 88.0626L79.3668 82.6612L66.3805 95.6475C65.6909 96.337 64.4651 96.4519 63.6606 95.6475C63.3099 95.2816 63.1141 94.7944 63.1141 94.2876C63.1141 93.7807 63.3099 93.2935 63.6606 92.9276L80.4394 76.1489L87.6029 83.2741C91.2422 86.9133 97.5246 86.875 101.164 83.2741C104.918 79.5199 104.918 73.4673 101.164 69.7132L94.0386 62.5879L95.1112 61.5153C98.0992 58.5273 102.964 58.5273 105.952 61.5153L122.195 77.7578C125.183 80.7458 125.183 85.6109 122.195 88.5989L90.7825 120.011ZM127.596 94.0386C130.466 91.1605 132.078 87.2619 132.078 83.1975C132.078 79.1331 130.466 75.2345 127.596 72.3564L111.354 56.1139C108.476 53.2441 104.577 51.6326 100.513 51.6326C96.4482 51.6326 92.5496 53.2441 89.6715 56.1139L88.5989 57.1866L87.5263 56.1139C84.6482 53.2441 80.7496 51.6326 76.6852 51.6326C72.6208 51.6326 68.7223 53.2441 65.8442 56.1139L52.2832 69.6749C49.6917 72.2575 48.112 75.6837 47.8309 79.3316C47.5497 82.9795 48.5858 86.6073 50.7509 89.5566L56.3055 84.0019C55.565 82.5561 55.3032 80.9122 55.558 79.3079C55.8128 77.7035 56.5709 76.2216 57.7229 75.0763L71.2838 61.5153C74.2718 58.5273 79.1369 58.5273 82.1249 61.5153L95.7625 75.1529C96.452 75.8424 96.5669 77.0683 95.7625 77.8727C94.958 78.6772 93.7322 78.5623 93.0426 77.8727L80.4394 65.3078L58.2209 87.4879C54.4668 91.2038 54.4668 97.2947 58.2209 101.049C59.7149 102.543 61.6303 103.462 63.6606 103.73C63.9289 105.79 64.8708 107.704 66.3397 109.173C67.8085 110.641 69.7219 111.583 71.7818 111.852C72.0501 113.912 72.992 115.825 74.4609 117.294C75.9298 118.763 77.8432 119.705 79.9031 119.973C80.1712 122.041 81.0906 123.919 82.5846 125.413C84.3851 127.213 86.7985 128.209 89.3651 128.209C91.9317 128.209 94.3451 127.213 96.1455 125.413L127.596 94.0386Z" fill="#575757"/>
</g>
<defs>
<clipPath id="clip0_302_19">
<rect width="91.9385" height="91.9385" fill="white" transform="translate(43.9705 43.9705)"/>
</clipPath>
</defs>
</svg>
