<svg width="705" height="393" viewBox="0 0 705 393" fill="none" xmlns="http://www.w3.org/2000/svg">
<mask id="path-1-outside-1_275_6" maskUnits="userSpaceOnUse" x="0" y="0" width="690" height="393" fill="black">
<rect fill="white" width="690" height="393" class="shaik-textr-1" />
<path d="M75.3808 392C66.5766 392 59.8975 389.246 57.7723 381.904C57.4687 380.986 57.4687 379.762 57.4687 378.538C57.4687 343.354 186.193 257.689 211.695 243.31C171.317 206.596 1 234.437 1 172.636V169.577C4.33955 132.863 52.3076 89.1127 113.027 55.7645C162.209 28.5352 233.554 1 292.451 1C297.612 1 302.166 1.30596 307.024 1.61189C330.097 3.7535 338.901 15.0736 338.901 30.9828C338.901 76.2629 266.646 158.563 239.626 165.599C237.804 166.211 236.286 166.517 234.768 166.517C229.607 166.517 226.268 163.458 224.75 160.398C224.142 159.174 224.142 158.257 224.142 157.645C224.142 156.115 224.75 154.891 225.053 154.585C225.357 154.279 225.964 153.973 226.571 153.973C229.304 153.973 234.161 157.645 234.465 157.645L235.679 157.951C237.804 157.951 240.84 156.727 244.483 154.891C273.021 139.594 334.651 69.838 334.651 31.2887C334.651 17.8271 326.758 8.03678 306.72 6.20108C302.166 5.89516 297.916 5.5892 293.059 5.5892C235.375 5.5892 167.674 36.4898 119.706 63.1072C59.8975 96.1494 15.269 139.594 12.5366 168.965V171.412C12.5366 223.423 177.996 201.089 217.463 239.639C221.106 237.497 230.822 235.049 235.072 234.743H236.59C240.233 234.743 241.751 236.273 241.751 238.109L241.447 239.333C240.537 240.862 238.411 243.616 235.679 243.616L230.214 243.31C226.875 243.31 223.839 243.922 221.41 245.146C225.964 252.794 228.089 260.443 228.089 268.398C228.089 322.244 131.546 380.068 92.0786 389.552C86.0066 391.082 80.2383 392 75.3808 392ZM74.47 388.941C79.024 388.941 84.4887 388.329 90.257 386.799C124.867 377.926 222.017 319.491 222.017 268.703C222.017 261.361 219.892 254.324 215.642 247.593C191.961 260.749 60.8083 348.25 60.8083 378.844V380.68C61.719 386.799 66.8802 388.941 74.47 388.941Z" class="shaik-textr-2"/>
<path d="M250.923 308.171C250.012 308.171 249.101 308.171 248.494 307.865C247.28 307.253 246.369 306.335 246.369 304.805L246.673 303.275C256.084 272.069 264.888 239.638 277.336 209.656C300.712 154.585 351.109 67.0845 386.023 67.0845C387.237 67.0845 388.755 67.0845 389.969 67.3905C396.345 68.6142 398.774 73.5094 398.774 79.9343C398.774 86.6651 396.345 94.6197 393.005 102.574C374.79 148.466 318.928 217.304 271.567 246.675C267.013 260.137 264.888 266.868 258.816 287.366C266.406 276.658 309.213 229.542 323.482 229.542H324.089C343.216 231.378 324.696 293.791 352.02 295.015H352.627C368.718 295.015 393.613 259.219 403.328 247.593C404.238 246.675 404.846 246.063 405.453 246.063L406.06 246.981C406.06 247.593 405.453 248.205 405.149 248.817C392.702 265.032 369.629 297.768 352.02 297.768H351.716C321.357 297.462 336.233 235.967 323.786 233.214H323.178C311.338 233.214 267.621 287.06 255.173 306.335C253.959 307.865 252.137 308.171 250.923 308.171ZM273.085 241.78C317.41 217.304 372.057 145.101 390.577 100.739C393.613 93.3959 396.041 85.7473 396.041 80.2402C396.041 74.7332 393.916 71.0618 388.148 71.0618C351.413 71.0618 297.373 174.778 273.085 241.78Z" class="shaik-textr-3"/>
<path d="M430.329 299.604H429.114C421.524 298.992 419.096 293.485 419.096 286.754C419.096 274.21 427.293 255.854 430.329 249.123C420.006 263.196 407.255 276.352 400.273 276.352L398.451 276.046C395.415 274.822 394.201 272.069 394.201 268.703C394.201 256.466 410.291 234.131 419.399 232.296C420.31 231.99 421.524 231.684 422.435 231.684C427.293 231.684 431.543 234.743 433.972 240.25L438.829 233.52C439.133 233.214 439.74 232.908 440.347 232.908C441.258 232.908 442.169 233.214 442.776 233.826C443.383 234.437 443.99 235.049 443.99 235.967C443.99 236.579 443.687 237.497 443.08 238.109C439.133 243.004 421.524 272.375 421.524 287.978C421.524 293.485 423.65 297.156 429.721 297.462H430.329C448.241 297.462 488.012 255.854 503.191 246.675L504.709 246.063C505.317 246.063 505.62 246.369 505.924 246.675V247.287C505.924 247.899 505.62 248.817 504.709 249.429C485.583 261.055 450.062 299.604 430.329 299.604ZM401.791 272.987L403.309 272.681C407.559 271.151 416.06 261.667 430.329 243.922C428.507 239.333 426.382 237.497 423.042 237.497C413.631 237.497 399.665 261.973 399.665 270.233C399.665 272.069 400.273 272.987 401.791 272.987Z" class="shaik-textr-4"/>
<path d="M527.206 213.633C525.992 213.633 524.778 213.327 523.867 212.409C522.956 211.185 522.652 210.268 522.652 209.35C522.652 206.596 525.688 205.372 528.421 205.372H529.028C530.849 205.372 532.367 206.29 532.671 208.126C532.671 210.574 532.671 212.409 531.153 213.021C530.242 213.327 528.724 213.633 527.206 213.633ZM497.758 297.768C496.24 297.768 494.722 297.462 493.811 296.545C491.078 294.403 489.864 291.038 489.864 286.754C489.864 268.703 508.991 236.579 510.812 234.437C511.723 232.908 513.545 232.296 514.759 232.296C516.884 232.296 518.706 233.826 518.706 235.967C518.706 237.191 518.402 238.721 516.884 240.556C513.241 245.146 504.437 254.324 498.061 272.681C495.936 279.106 494.114 285.531 494.114 289.814C494.114 291.955 494.722 293.485 495.632 294.097C496.24 294.709 497.15 294.709 498.061 294.709C510.812 294.709 551.19 257.077 561.209 247.287C562.12 246.369 562.727 246.063 563.334 246.063L563.941 246.675L564.245 247.287C564.245 247.593 563.941 248.205 562.727 249.123C552.101 259.219 513.545 297.768 497.758 297.768Z" class="shaik-textr-5"/>
<path d="M540.999 314.901C539.784 314.595 538.873 313.984 538.873 312.76V312.148C542.213 295.321 549.803 272.987 559.821 249.123H552.535C550.714 249.123 548.892 248.511 548.892 246.675L549.196 245.451C550.106 243.616 552.232 243.004 554.357 243.004H555.571C558.303 243.31 560.732 244.228 561.643 245.146C565.893 235.661 570.144 226.177 574.698 216.693C573.483 216.693 571.965 217.916 570.144 217.916H569.84C569.233 217.916 568.929 217.61 568.929 216.998C568.929 216.081 569.84 214.551 570.447 214.551C572.269 214.551 574.09 214.551 576.519 213.633C587.449 191.299 649.078 74.4272 679.742 74.4272C681.26 74.4272 682.777 74.7332 683.992 75.3451C687.331 76.8748 688.849 79.9343 688.849 83.9116C688.849 90.3365 685.206 98.903 680.349 108.081C661.829 141.124 615.379 195.276 581.073 214.857C576.216 224.647 571.358 234.437 567.108 243.616C584.716 238.109 618.415 218.222 630.559 210.574C631.47 209.962 632.381 209.656 632.988 209.656C634.202 209.656 635.113 210.574 635.417 211.491L635.72 213.021C635.72 214.245 635.113 215.469 633.595 216.387C622.666 223.117 578.341 245.451 565.286 248.205C578.037 260.443 593.824 281.247 612.343 281.247C627.827 281.247 653.329 258.607 662.74 247.287C663.347 246.369 663.955 246.063 664.258 246.063L664.865 246.369L665.169 246.981L664.258 248.817C652.722 262.585 629.345 284.001 612.343 284.001C592.306 284.001 577.126 265.338 563.161 252.182C554.357 271.763 547.374 290.12 543.731 305.417L543.427 313.066C543.124 314.29 541.909 314.901 540.999 314.901ZM582.591 211.491C610.218 196.5 658.49 140.818 677.313 106.246C680.956 99.5149 685.206 90.0305 685.206 83.9116C685.206 81.1581 684.295 79.3224 681.867 78.7105H680.349C654.24 78.7105 592.913 191.605 582.591 211.491Z" class="shaik-textr-6"/>
</mask>
<path d="M75.3808 392C66.5766 392 59.8975 389.246 57.7723 381.904C57.4687 380.986 57.4687 379.762 57.4687 378.538C57.4687 343.354 186.193 257.689 211.695 243.31C171.317 206.596 1 234.437 1 172.636V169.577C4.33955 132.863 52.3076 89.1127 113.027 55.7645C162.209 28.5352 233.554 1 292.451 1C297.612 1 302.166 1.30596 307.024 1.61189C330.097 3.7535 338.901 15.0736 338.901 30.9828C338.901 76.2629 266.646 158.563 239.626 165.599C237.804 166.211 236.286 166.517 234.768 166.517C229.607 166.517 226.268 163.458 224.75 160.398C224.142 159.174 224.142 158.257 224.142 157.645C224.142 156.115 224.75 154.891 225.053 154.585C225.357 154.279 225.964 153.973 226.571 153.973C229.304 153.973 234.161 157.645 234.465 157.645L235.679 157.951C237.804 157.951 240.84 156.727 244.483 154.891C273.021 139.594 334.651 69.838 334.651 31.2887C334.651 17.8271 326.758 8.03678 306.72 6.20108C302.166 5.89516 297.916 5.5892 293.059 5.5892C235.375 5.5892 167.674 36.4898 119.706 63.1072C59.8975 96.1494 15.269 139.594 12.5366 168.965V171.412C12.5366 223.423 177.996 201.089 217.463 239.639C221.106 237.497 230.822 235.049 235.072 234.743H236.59C240.233 234.743 241.751 236.273 241.751 238.109L241.447 239.333C240.537 240.862 238.411 243.616 235.679 243.616L230.214 243.31C226.875 243.31 223.839 243.922 221.41 245.146C225.964 252.794 228.089 260.443 228.089 268.398C228.089 322.244 131.546 380.068 92.0786 389.552C86.0066 391.082 80.2383 392 75.3808 392ZM74.47 388.941C79.024 388.941 84.4887 388.329 90.257 386.799C124.867 377.926 222.017 319.491 222.017 268.703C222.017 261.361 219.892 254.324 215.642 247.593C191.961 260.749 60.8083 348.25 60.8083 378.844V380.68C61.719 386.799 66.8802 388.941 74.47 388.941Z" fill="white" class="shaik-textr-7"/>
<path d="M250.923 308.171C250.012 308.171 249.101 308.171 248.494 307.865C247.28 307.253 246.369 306.335 246.369 304.805L246.673 303.275C256.084 272.069 264.888 239.638 277.336 209.656C300.712 154.585 351.109 67.0845 386.023 67.0845C387.237 67.0845 388.755 67.0845 389.969 67.3905C396.345 68.6142 398.774 73.5094 398.774 79.9343C398.774 86.6651 396.345 94.6197 393.005 102.574C374.79 148.466 318.928 217.304 271.567 246.675C267.013 260.137 264.888 266.868 258.816 287.366C266.406 276.658 309.213 229.542 323.482 229.542H324.089C343.216 231.378 324.696 293.791 352.02 295.015H352.627C368.718 295.015 393.613 259.219 403.328 247.593C404.238 246.675 404.846 246.063 405.453 246.063L406.06 246.981C406.06 247.593 405.453 248.205 405.149 248.817C392.702 265.032 369.629 297.768 352.02 297.768H351.716C321.357 297.462 336.233 235.967 323.786 233.214H323.178C311.338 233.214 267.621 287.06 255.173 306.335C253.959 307.865 252.137 308.171 250.923 308.171ZM273.085 241.78C317.41 217.304 372.057 145.101 390.577 100.739C393.613 93.3959 396.041 85.7473 396.041 80.2402C396.041 74.7332 393.916 71.0618 388.148 71.0618C351.413 71.0618 297.373 174.778 273.085 241.78Z" fill="white" class="shaik-textr-8"/>
<path d="M430.329 299.604H429.114C421.524 298.992 419.096 293.485 419.096 286.754C419.096 274.21 427.293 255.854 430.329 249.123C420.006 263.196 407.255 276.352 400.273 276.352L398.451 276.046C395.415 274.822 394.201 272.069 394.201 268.703C394.201 256.466 410.291 234.131 419.399 232.296C420.31 231.99 421.524 231.684 422.435 231.684C427.293 231.684 431.543 234.743 433.972 240.25L438.829 233.52C439.133 233.214 439.74 232.908 440.347 232.908C441.258 232.908 442.169 233.214 442.776 233.826C443.383 234.437 443.99 235.049 443.99 235.967C443.99 236.579 443.687 237.497 443.08 238.109C439.133 243.004 421.524 272.375 421.524 287.978C421.524 293.485 423.65 297.156 429.721 297.462H430.329C448.241 297.462 488.012 255.854 503.191 246.675L504.709 246.063C505.317 246.063 505.62 246.369 505.924 246.675V247.287C505.924 247.899 505.62 248.817 504.709 249.429C485.583 261.055 450.062 299.604 430.329 299.604ZM401.791 272.987L403.309 272.681C407.559 271.151 416.06 261.667 430.329 243.922C428.507 239.333 426.382 237.497 423.042 237.497C413.631 237.497 399.665 261.973 399.665 270.233C399.665 272.069 400.273 272.987 401.791 272.987Z" fill="white" class="shaik-textr-9"/>
<path d="M527.206 213.633C525.992 213.633 524.778 213.327 523.867 212.409C522.956 211.185 522.652 210.268 522.652 209.35C522.652 206.596 525.688 205.372 528.421 205.372H529.028C530.849 205.372 532.367 206.29 532.671 208.126C532.671 210.574 532.671 212.409 531.153 213.021C530.242 213.327 528.724 213.633 527.206 213.633ZM497.758 297.768C496.24 297.768 494.722 297.462 493.811 296.545C491.078 294.403 489.864 291.038 489.864 286.754C489.864 268.703 508.991 236.579 510.812 234.437C511.723 232.908 513.545 232.296 514.759 232.296C516.884 232.296 518.706 233.826 518.706 235.967C518.706 237.191 518.402 238.721 516.884 240.556C513.241 245.146 504.437 254.324 498.061 272.681C495.936 279.106 494.114 285.531 494.114 289.814C494.114 291.955 494.722 293.485 495.632 294.097C496.24 294.709 497.15 294.709 498.061 294.709C510.812 294.709 551.19 257.077 561.209 247.287C562.12 246.369 562.727 246.063 563.334 246.063L563.941 246.675L564.245 247.287C564.245 247.593 563.941 248.205 562.727 249.123C552.101 259.219 513.545 297.768 497.758 297.768Z" fill="white" class="shaik-textr-10"/>
<path d="M540.999 314.901C539.784 314.595 538.873 313.984 538.873 312.76V312.148C542.213 295.321 549.803 272.987 559.821 249.123H552.535C550.714 249.123 548.892 248.511 548.892 246.675L549.196 245.451C550.106 243.616 552.232 243.004 554.357 243.004H555.571C558.303 243.31 560.732 244.228 561.643 245.146C565.893 235.661 570.144 226.177 574.698 216.693C573.483 216.693 571.965 217.916 570.144 217.916H569.84C569.233 217.916 568.929 217.61 568.929 216.998C568.929 216.081 569.84 214.551 570.447 214.551C572.269 214.551 574.09 214.551 576.519 213.633C587.449 191.299 649.078 74.4272 679.742 74.4272C681.26 74.4272 682.777 74.7332 683.992 75.3451C687.331 76.8748 688.849 79.9343 688.849 83.9116C688.849 90.3365 685.206 98.903 680.349 108.081C661.829 141.124 615.379 195.276 581.073 214.857C576.216 224.647 571.358 234.437 567.108 243.616C584.716 238.109 618.415 218.222 630.559 210.574C631.47 209.962 632.381 209.656 632.988 209.656C634.202 209.656 635.113 210.574 635.417 211.491L635.72 213.021C635.72 214.245 635.113 215.469 633.595 216.387C622.666 223.117 578.341 245.451 565.286 248.205C578.037 260.443 593.824 281.247 612.343 281.247C627.827 281.247 653.329 258.607 662.74 247.287C663.347 246.369 663.955 246.063 664.258 246.063L664.865 246.369L665.169 246.981L664.258 248.817C652.722 262.585 629.345 284.001 612.343 284.001C592.306 284.001 577.126 265.338 563.161 252.182C554.357 271.763 547.374 290.12 543.731 305.417L543.427 313.066C543.124 314.29 541.909 314.901 540.999 314.901ZM582.591 211.491C610.218 196.5 658.49 140.818 677.313 106.246C680.956 99.5149 685.206 90.0305 685.206 83.9116C685.206 81.1581 684.295 79.3224 681.867 78.7105H680.349C654.24 78.7105 592.913 191.605 582.591 211.491Z" fill="white" class="shaik-textr-11"/>
<path d="M75.3808 392C66.5766 392 59.8975 389.246 57.7723 381.904C57.4687 380.986 57.4687 379.762 57.4687 378.538C57.4687 343.354 186.193 257.689 211.695 243.31C171.317 206.596 1 234.437 1 172.636V169.577C4.33955 132.863 52.3076 89.1127 113.027 55.7645C162.209 28.5352 233.554 1 292.451 1C297.612 1 302.166 1.30596 307.024 1.61189C330.097 3.7535 338.901 15.0736 338.901 30.9828C338.901 76.2629 266.646 158.563 239.626 165.599C237.804 166.211 236.286 166.517 234.768 166.517C229.607 166.517 226.268 163.458 224.75 160.398C224.142 159.174 224.142 158.257 224.142 157.645C224.142 156.115 224.75 154.891 225.053 154.585C225.357 154.279 225.964 153.973 226.571 153.973C229.304 153.973 234.161 157.645 234.465 157.645L235.679 157.951C237.804 157.951 240.84 156.727 244.483 154.891C273.021 139.594 334.651 69.838 334.651 31.2887C334.651 17.8271 326.758 8.03678 306.72 6.20108C302.166 5.89516 297.916 5.5892 293.059 5.5892C235.375 5.5892 167.674 36.4898 119.706 63.1072C59.8975 96.1494 15.269 139.594 12.5366 168.965V171.412C12.5366 223.423 177.996 201.089 217.463 239.639C221.106 237.497 230.822 235.049 235.072 234.743H236.59C240.233 234.743 241.751 236.273 241.751 238.109L241.447 239.333C240.537 240.862 238.411 243.616 235.679 243.616L230.214 243.31C226.875 243.31 223.839 243.922 221.41 245.146C225.964 252.794 228.089 260.443 228.089 268.398C228.089 322.244 131.546 380.068 92.0786 389.552C86.0066 391.082 80.2383 392 75.3808 392ZM74.47 388.941C79.024 388.941 84.4887 388.329 90.257 386.799C124.867 377.926 222.017 319.491 222.017 268.703C222.017 261.361 219.892 254.324 215.642 247.593C191.961 260.749 60.8083 348.25 60.8083 378.844V380.68C61.719 386.799 66.8802 388.941 74.47 388.941Z" stroke="white" stroke-width="2" mask="url(#path-1-outside-1_275_6)" class="shaik-textr-12"/>
<path d="M250.923 308.171C250.012 308.171 249.101 308.171 248.494 307.865C247.28 307.253 246.369 306.335 246.369 304.805L246.673 303.275C256.084 272.069 264.888 239.638 277.336 209.656C300.712 154.585 351.109 67.0845 386.023 67.0845C387.237 67.0845 388.755 67.0845 389.969 67.3905C396.345 68.6142 398.774 73.5094 398.774 79.9343C398.774 86.6651 396.345 94.6197 393.005 102.574C374.79 148.466 318.928 217.304 271.567 246.675C267.013 260.137 264.888 266.868 258.816 287.366C266.406 276.658 309.213 229.542 323.482 229.542H324.089C343.216 231.378 324.696 293.791 352.02 295.015H352.627C368.718 295.015 393.613 259.219 403.328 247.593C404.238 246.675 404.846 246.063 405.453 246.063L406.06 246.981C406.06 247.593 405.453 248.205 405.149 248.817C392.702 265.032 369.629 297.768 352.02 297.768H351.716C321.357 297.462 336.233 235.967 323.786 233.214H323.178C311.338 233.214 267.621 287.06 255.173 306.335C253.959 307.865 252.137 308.171 250.923 308.171ZM273.085 241.78C317.41 217.304 372.057 145.101 390.577 100.739C393.613 93.3959 396.041 85.7473 396.041 80.2402C396.041 74.7332 393.916 71.0618 388.148 71.0618C351.413 71.0618 297.373 174.778 273.085 241.78Z" stroke="white" stroke-width="2" mask="url(#path-1-outside-1_275_6)" class="shaik-textr-13"/>
<path d="M430.329 299.604H429.114C421.524 298.992 419.096 293.485 419.096 286.754C419.096 274.21 427.293 255.854 430.329 249.123C420.006 263.196 407.255 276.352 400.273 276.352L398.451 276.046C395.415 274.822 394.201 272.069 394.201 268.703C394.201 256.466 410.291 234.131 419.399 232.296C420.31 231.99 421.524 231.684 422.435 231.684C427.293 231.684 431.543 234.743 433.972 240.25L438.829 233.52C439.133 233.214 439.74 232.908 440.347 232.908C441.258 232.908 442.169 233.214 442.776 233.826C443.383 234.437 443.99 235.049 443.99 235.967C443.99 236.579 443.687 237.497 443.08 238.109C439.133 243.004 421.524 272.375 421.524 287.978C421.524 293.485 423.65 297.156 429.721 297.462H430.329C448.241 297.462 488.012 255.854 503.191 246.675L504.709 246.063C505.317 246.063 505.62 246.369 505.924 246.675V247.287C505.924 247.899 505.62 248.817 504.709 249.429C485.583 261.055 450.062 299.604 430.329 299.604ZM401.791 272.987L403.309 272.681C407.559 271.151 416.06 261.667 430.329 243.922C428.507 239.333 426.382 237.497 423.042 237.497C413.631 237.497 399.665 261.973 399.665 270.233C399.665 272.069 400.273 272.987 401.791 272.987Z" stroke="white" stroke-width="2" mask="url(#path-1-outside-1_275_6)" class="shaik-textr-14"/>
<path d="M527.206 213.633C525.992 213.633 524.778 213.327 523.867 212.409C522.956 211.185 522.652 210.268 522.652 209.35C522.652 206.596 525.688 205.372 528.421 205.372H529.028C530.849 205.372 532.367 206.29 532.671 208.126C532.671 210.574 532.671 212.409 531.153 213.021C530.242 213.327 528.724 213.633 527.206 213.633ZM497.758 297.768C496.24 297.768 494.722 297.462 493.811 296.545C491.078 294.403 489.864 291.038 489.864 286.754C489.864 268.703 508.991 236.579 510.812 234.437C511.723 232.908 513.545 232.296 514.759 232.296C516.884 232.296 518.706 233.826 518.706 235.967C518.706 237.191 518.402 238.721 516.884 240.556C513.241 245.146 504.437 254.324 498.061 272.681C495.936 279.106 494.114 285.531 494.114 289.814C494.114 291.955 494.722 293.485 495.632 294.097C496.24 294.709 497.15 294.709 498.061 294.709C510.812 294.709 551.19 257.077 561.209 247.287C562.12 246.369 562.727 246.063 563.334 246.063L563.941 246.675L564.245 247.287C564.245 247.593 563.941 248.205 562.727 249.123C552.101 259.219 513.545 297.768 497.758 297.768Z" stroke="white" stroke-width="2" mask="url(#path-1-outside-1_275_6)" class="shaik-textr-15"/>
<path d="M540.999 314.901C539.784 314.595 538.873 313.984 538.873 312.76V312.148C542.213 295.321 549.803 272.987 559.821 249.123H552.535C550.714 249.123 548.892 248.511 548.892 246.675L549.196 245.451C550.106 243.616 552.232 243.004 554.357 243.004H555.571C558.303 243.31 560.732 244.228 561.643 245.146C565.893 235.661 570.144 226.177 574.698 216.693C573.483 216.693 571.965 217.916 570.144 217.916H569.84C569.233 217.916 568.929 217.61 568.929 216.998C568.929 216.081 569.84 214.551 570.447 214.551C572.269 214.551 574.09 214.551 576.519 213.633C587.449 191.299 649.078 74.4272 679.742 74.4272C681.26 74.4272 682.777 74.7332 683.992 75.3451C687.331 76.8748 688.849 79.9343 688.849 83.9116C688.849 90.3365 685.206 98.903 680.349 108.081C661.829 141.124 615.379 195.276 581.073 214.857C576.216 224.647 571.358 234.437 567.108 243.616C584.716 238.109 618.415 218.222 630.559 210.574C631.47 209.962 632.381 209.656 632.988 209.656C634.202 209.656 635.113 210.574 635.417 211.491L635.72 213.021C635.72 214.245 635.113 215.469 633.595 216.387C622.666 223.117 578.341 245.451 565.286 248.205C578.037 260.443 593.824 281.247 612.343 281.247C627.827 281.247 653.329 258.607 662.74 247.287C663.347 246.369 663.955 246.063 664.258 246.063L664.865 246.369L665.169 246.981L664.258 248.817C652.722 262.585 629.345 284.001 612.343 284.001C592.306 284.001 577.126 265.338 563.161 252.182C554.357 271.763 547.374 290.12 543.731 305.417L543.427 313.066C543.124 314.29 541.909 314.901 540.999 314.901ZM582.591 211.491C610.218 196.5 658.49 140.818 677.313 106.246C680.956 99.5149 685.206 90.0305 685.206 83.9116C685.206 81.1581 684.295 79.3224 681.867 78.7105H680.349C654.24 78.7105 592.913 191.605 582.591 211.491Z" stroke="white" stroke-width="2" mask="url(#path-1-outside-1_275_6)" class="shaik-textr-16"/>
<path d="M669.518 306.64C668.506 305.62 668 304.294 668 302.663C668 301.235 668.708 299.603 670.125 297.768C670.732 295.728 671.643 293.79 672.858 291.955C674.477 289.507 677.614 287.365 682.269 285.53C685.305 284.714 687.936 284.204 690.162 284C692.794 284 695.121 284.612 697.145 285.836C699.169 287.059 700.282 288.895 700.485 291.343V297.156L702.003 298.991C703.015 300.215 703.521 301.643 703.521 303.275C703.521 306.334 701.395 309.394 697.145 312.453C692.895 315.309 688.543 316.736 684.091 316.736C681.662 316.736 679.537 316.328 677.715 315.513C675.691 314.901 673.87 313.779 672.25 312.147C670.834 310.515 669.923 308.68 669.518 306.64Z" fill="#F50F46" class="shaik-textr-17"/>
<path d="M682.139 285.047L682.112 285.054L682.086 285.065C677.395 286.914 674.144 289.104 672.441 291.679C671.218 293.527 670.294 295.48 669.673 297.536C668.263 299.381 667.5 301.095 667.5 302.663C667.5 304.351 668.011 305.772 669.057 306.883C669.494 308.953 670.435 310.819 671.873 312.475L671.884 312.487L671.895 312.499C673.56 314.177 675.442 315.342 677.54 315.982C679.431 316.823 681.619 317.236 684.091 317.236C688.657 317.236 693.104 315.77 697.424 312.868L697.431 312.864L697.437 312.859C701.727 309.771 704.021 306.582 704.021 303.275C704.021 301.53 703.476 299.989 702.388 298.673L700.985 296.976V291.343V291.322L700.983 291.302C700.768 288.701 699.571 286.718 697.404 285.408C695.293 284.132 692.874 283.5 690.162 283.5H690.14L690.117 283.502C687.853 283.709 685.193 284.226 682.139 285.047Z" stroke="#F50F46" class="shaik-textr-18"/>
</svg>
